<svg width="36" height="35" viewBox="0 0 36 35" fill="none" xmlns="http://www.w3.org/2000/svg">
<path d="M23.2812 5.125H12.3438C11.0254 5.125 10 6.19922 10 7.46875V27.7812C10 29.0996 11.0254 30.125 12.3438 30.125H23.2812C24.5508 30.125 25.625 29.0996 25.625 27.7812V7.46875C25.625 6.19922 24.5508 5.125 23.2812 5.125ZM17.8125 28.5625C16.9336 28.5625 16.25 27.8789 16.25 27C16.25 26.1699 16.9336 25.4375 17.8125 25.4375C18.6426 25.4375 19.375 26.1699 19.375 27C19.375 27.8789 18.6426 28.5625 17.8125 28.5625Z" fill="#EE333A"/>
<path d="M13.0625 12.5698C13.5137 12.5698 13.7554 12.3174 13.7554 11.8716V10.7544C13.7554 10.2925 13.9863 10.083 14.416 10.083H15.5547C16.0059 10.083 16.2529 9.83594 16.2529 9.39014C16.2529 8.94434 16.0059 8.69727 15.5547 8.69727H14.2656C13.041 8.69727 12.3696 9.36328 12.3696 10.5825V11.8716C12.3696 12.3228 12.6167 12.5698 13.0625 12.5698ZM22.5371 12.5698C22.9883 12.5698 23.23 12.3228 23.23 11.8716V10.5825C23.23 9.36328 22.564 8.69727 21.334 8.69727H20.0503C19.5938 8.69727 19.3467 8.94434 19.3467 9.39014C19.3467 9.83594 19.5991 10.083 20.0503 10.083H21.1836C21.6133 10.083 21.8442 10.2925 21.8442 10.7544V11.8716C21.8442 12.3228 22.0913 12.5698 22.5371 12.5698ZM15.4795 13.8965H17.3379C17.4722 13.8965 17.5688 13.7998 17.5688 13.6655V11.8071C17.5688 11.6729 17.4722 11.5762 17.3379 11.5762H15.4795C15.3452 11.5762 15.2432 11.6729 15.2432 11.8071V13.6655C15.2432 13.7998 15.3452 13.8965 15.4795 13.8965ZM18.2617 13.8965H20.1201C20.2544 13.8965 20.3564 13.7998 20.3564 13.6655V11.8071C20.3564 11.6729 20.2544 11.5762 20.1201 11.5762H18.2617C18.1328 11.5762 18.0308 11.6729 18.0308 11.8071V13.6655C18.0308 13.7998 18.1328 13.8965 18.2617 13.8965ZM15.7104 13.4292V12.0381H17.1016V13.4292H15.7104ZM18.498 13.4292V12.0381H19.8892V13.4292H18.498ZM16.1187 13.0264H16.6987V12.4463H16.1187V13.0264ZM18.9009 13.0264H19.481V12.4463H18.9009V13.0264ZM15.4795 16.6841H17.3379C17.4722 16.6841 17.5688 16.5874 17.5688 16.4478V14.5947C17.5688 14.4604 17.4722 14.3638 17.3379 14.3638H15.4795C15.3452 14.3638 15.2432 14.4604 15.2432 14.5947V16.4478C15.2432 16.5874 15.3452 16.6841 15.4795 16.6841ZM18.0952 15.0083H18.6807V14.4282H18.0952V15.0083ZM19.7065 15.0083H20.2866V14.4282H19.7065V15.0083ZM15.7104 16.2168V14.8257H17.1016V16.2168H15.7104ZM16.1187 15.8086H16.6987V15.2285H16.1187V15.8086ZM18.9009 15.814H19.481V15.2339H18.9009V15.814ZM14.2656 19.563H15.5547C16.0059 19.563 16.2529 19.3159 16.2529 18.8647C16.2529 18.4189 16.0059 18.1719 15.5547 18.1719H14.416C13.9863 18.1719 13.7554 17.9624 13.7554 17.5059V16.3887C13.7554 15.9321 13.5083 15.6904 13.0625 15.6904C12.6113 15.6904 12.3696 15.9321 12.3696 16.3887V17.6777C12.3696 18.897 13.041 19.563 14.2656 19.563ZM20.0503 19.563H21.334C22.564 19.563 23.23 18.8916 23.23 17.6777V16.3887C23.23 15.9321 22.9883 15.6904 22.5371 15.6904C22.0913 15.6904 21.8442 15.9375 21.8442 16.3887V17.5059C21.8442 17.9624 21.6133 18.1719 21.1836 18.1719H20.0503C19.5938 18.1719 19.3467 18.4189 19.3467 18.8647C19.3467 19.3159 19.5938 19.563 20.0503 19.563ZM18.0952 16.6143H18.6807V16.0396H18.0952V16.6143ZM19.7065 16.6143H20.2866V16.0396H19.7065V16.6143Z" fill="#FAFCFE"/>
</svg>
