<svg width="35" height="39" viewBox="0 0 35 39" fill="none" xmlns="http://www.w3.org/2000/svg">
<path d="M28.8281 19.3809L24.1406 17.5742V12.3008C24.1406 11.5684 23.6523 10.9336 22.9688 10.6406L18.0859 8.83398C17.6953 8.6875 17.2559 8.6875 16.8652 8.83398L11.9824 10.6406C11.2988 10.9336 10.8105 11.5684 10.8105 12.3008V17.5742L6.12305 19.3809C5.43945 19.625 5 20.2598 5 20.9922V26.3633C5 27.0469 5.3418 27.6816 5.92773 27.9746L10.8105 30.416C11.3477 30.6602 11.9336 30.6602 12.4219 30.416L17.5 27.877L22.5293 30.416C23.0664 30.6602 23.6523 30.6602 24.1406 30.416L29.0234 27.9746C29.6094 27.6816 30 27.0469 30 26.3633V20.9922C30 20.2598 29.5117 19.625 28.8281 19.3809ZM22.4805 17.623L18.3301 19.1855V15.8652L22.4805 14.0586V17.623ZM12.5195 12.252L17.5 10.3477L22.4805 12.252L17.5 14.3027L12.5195 12.252ZM16.6211 26.4609L12.4707 28.5117V24.6543L16.6211 22.75V26.4609ZM16.6211 20.9922L11.6406 22.9941L6.66016 20.9922V20.9434L11.6406 19.0879L16.6211 20.9434V20.9922ZM28.3398 26.4609L24.1895 28.5117V24.6543L28.3398 22.75V26.4609ZM28.3398 20.9922L23.3594 22.9941L18.3789 20.9922V20.9434L23.3594 19.0879L28.3398 20.9434V20.9922Z" fill="#EE333A"/>
</svg>
