<svg width="37" height="39" viewBox="0 0 37 39" fill="none" xmlns="http://www.w3.org/2000/svg">
<path d="M18.7812 20.5312C19.625 20.7656 20.375 21.1875 21.0781 21.7031L28.6719 19.1719C29.0469 19.0312 29.2812 18.6094 29.1406 18.2344L26.2812 9.75C26.1875 9.32812 25.7656 9.14062 25.3438 9.28125L22.4844 10.2188L24.0312 14.8594L21.2188 15.7969L19.625 11.1562L16.7656 12.1406C16.3438 12.2344 16.1562 12.6562 16.2969 13.0781L18.7812 20.5312ZM31.9531 22.8281L31.4844 21.375C31.3438 21 30.9219 20.8125 30.5 20.9062L20.5156 24.2812C19.7188 23.25 18.4531 22.5469 17.0469 22.5469L12.4062 8.53125C12.2188 7.92188 11.6094 7.5 11 7.5H5.75C5.32812 7.5 5 7.875 5 8.25V9.75C5 10.1719 5.32812 10.5 5.75 10.5H9.875L14.2344 23.4844C13.0156 24.4688 12.2656 26.0156 12.5469 27.75C12.8281 29.5781 14.3281 31.125 16.1562 31.4531C18.9688 31.9688 21.4062 29.8125 21.4531 27.0938L31.4844 23.7656C31.8594 23.625 32.0938 23.2031 31.9531 22.8281ZM17 29.25C15.7344 29.25 14.75 28.2656 14.75 27C14.75 25.7812 15.7344 24.75 17 24.75C18.2188 24.75 19.25 25.7812 19.25 27C19.25 28.2656 18.2188 29.25 17 29.25Z" fill="#EE333A"/>
</svg>
