<svg width="35" height="35" viewBox="0 0 35 35" fill="none" xmlns="http://www.w3.org/2000/svg">
<path fill-rule="evenodd" clip-rule="evenodd" d="M23.0867 25.2288C25.3042 23.5864 26.7416 20.9509 26.7416 17.9796C26.7416 13.0006 22.7054 8.96442 17.7265 8.96442C12.7475 8.96442 8.7113 13.0006 8.7113 17.9796C8.7113 21.0123 10.2088 23.6952 12.5046 25.3293C12.7454 22.6926 14.1074 20.507 15.9481 19.614C15.1136 19.014 14.5702 18.0347 14.5702 16.9284C14.5702 15.1028 16.0501 13.6229 17.8757 13.6229C19.7014 13.6229 21.1813 15.1028 21.1813 16.9284C21.1813 18.062 20.6106 19.0624 19.7409 19.6579C21.5138 20.5652 22.8252 22.6791 23.0867 25.2288Z" fill="#EE333A"/>
<path d="M19.5125 4.9916C21.8199 5.36284 23.9796 6.36507 25.7528 7.88745L24.9275 8.84869C23.3317 7.47855 21.3879 6.57654 19.3112 6.24243L19.5125 4.9916Z" fill="#EE333A"/>
<path d="M29.1204 12.4529C30.0514 14.5965 30.3714 16.9559 30.0449 19.27L28.7904 19.093C29.0843 17.0103 28.7963 14.8869 27.9584 12.9576L29.1204 12.4529Z" fill="#EE333A"/>
<path d="M27.3984 25.4085C25.9396 27.2344 24.0042 28.6211 21.8062 29.4154L21.3756 28.2239C23.3538 27.509 25.0957 26.261 26.4086 24.6177L27.3984 25.4085Z" fill="#EE333A"/>
<path d="M14.9842 29.9082C12.6954 29.4355 10.582 28.3389 8.87778 26.7397L9.7447 25.8158C11.2785 27.2551 13.1806 28.242 15.2404 28.6675L14.9842 29.9082Z" fill="#EE333A"/>
<path d="M5.39985 21.2556C4.7071 19.0236 4.64525 16.6435 5.22112 14.3785L6.44897 14.6907C5.93068 16.7291 5.98635 18.8713 6.60982 20.8801L5.39985 21.2556Z" fill="#EE333A"/>
<path d="M7.77206 9.38354C9.26932 7.58908 11.2338 6.24375 13.4481 5.49635L13.8532 6.69673C11.8604 7.36939 10.0924 8.58019 8.74482 10.1952L7.77206 9.38354Z" fill="#EE333A"/>
<path d="M9.24777 11.2118C9.11149 12.499 7.95749 13.4321 6.67025 13.2958C5.383 13.1595 4.44997 12.0055 4.58625 10.7183C4.72253 9.43103 5.87652 8.49799 7.16377 8.63427C8.45101 8.77055 9.38405 9.92455 9.24777 11.2118ZM5.75163 10.8417C5.68349 11.4853 6.15001 12.0623 6.79363 12.1304C7.43725 12.1986 8.01425 11.732 8.08239 11.0884C8.15053 10.4448 7.68401 9.86779 7.04039 9.79965C6.39677 9.73151 5.81977 10.198 5.75163 10.8417Z" fill="#EE333A"/>
<path d="M8.63191 23.0111C8.63191 24.3055 7.58256 25.3549 6.28812 25.3549C4.99369 25.3549 3.94434 24.3055 3.94434 23.0111C3.94434 21.7166 4.99369 20.6673 6.28812 20.6673C7.58256 20.6673 8.63191 21.7166 8.63191 23.0111ZM5.11623 23.0111C5.11623 23.6583 5.6409 24.183 6.28812 24.183C6.93534 24.183 7.46002 23.6583 7.46002 23.0111C7.46002 22.3639 6.93534 21.8392 6.28812 21.8392C5.6409 21.8392 5.11623 22.3639 5.11623 23.0111Z" fill="#EE333A"/>
<path d="M19.7801 5.2739C19.7801 6.56834 18.7308 7.61769 17.4363 7.61769C16.1419 7.61769 15.0925 6.56834 15.0925 5.2739C15.0925 3.97946 16.1419 2.93011 17.4363 2.93011C18.7308 2.93011 19.7801 3.97946 19.7801 5.2739ZM16.2644 5.2739C16.2644 5.92112 16.7891 6.44579 17.4363 6.44579C18.0835 6.44579 18.6082 5.92112 18.6082 5.2739C18.6082 4.62668 18.0835 4.10201 17.4363 4.10201C16.7891 4.10201 16.2644 4.62668 16.2644 5.2739Z" fill="#EE333A"/>
<path d="M19.2484 29.9471C19.188 31.2401 18.0909 32.2394 16.7979 32.179C15.5048 32.1187 14.5055 31.0215 14.5659 29.7285C14.6262 28.4355 15.7234 27.4362 17.0164 27.4965C18.3094 27.5569 19.3087 28.654 19.2484 29.9471ZM15.7365 29.7831C15.7063 30.4297 16.206 30.9782 16.8525 31.0084C17.499 31.0386 18.0476 30.5389 18.0778 29.8924C18.1079 29.2459 17.6083 28.6973 16.9618 28.6672C16.3153 28.637 15.7667 29.1366 15.7365 29.7831Z" fill="#EE333A"/>
<path d="M30.2819 10.7193C30.4194 12.0064 29.4874 13.1613 28.2003 13.2988C26.9132 13.4363 25.7583 12.5044 25.6208 11.2172C25.4833 9.93013 26.4152 8.77525 27.7024 8.63774C28.9895 8.50023 30.1443 9.43218 30.2819 10.7193ZM26.7861 11.0928C26.8548 11.7363 27.4323 12.2023 28.0758 12.1335C28.7194 12.0648 29.1853 11.4873 29.1166 10.8438C29.0478 10.2002 28.4704 9.73425 27.8268 9.803C27.1833 9.87176 26.7173 10.4492 26.7861 11.0928Z" fill="#EE333A"/>
<path d="M30.456 23.7824C30.3801 25.0746 29.2709 26.0606 27.9787 25.9846C26.6865 25.9087 25.7006 24.7996 25.7765 23.5074C25.8525 22.2151 26.9616 21.2292 28.2538 21.3051C29.546 21.3811 30.532 22.4902 30.456 23.7824ZM26.9464 23.5761C26.9084 24.2222 27.4014 24.7768 28.0475 24.8148C28.6936 24.8527 29.2482 24.3598 29.2861 23.7137C29.3241 23.0676 28.8311 22.513 28.185 22.475C27.5389 22.437 26.9844 22.93 26.9464 23.5761Z" fill="#EE333A"/>
</svg>
