<svg width="25" height="25" viewBox="0 0 25 25" fill="none" xmlns="http://www.w3.org/2000/svg">
<g clip-path="url(#clip0_714_33249)">
<path d="M1.82292 9.375H3.64583V20.3125C3.64583 20.8885 4.11146 21.3542 4.6875 21.3542C5.26354 21.3542 5.72917 20.8885 5.72917 20.3125V9.375H7.55208C8.55729 9.375 9.375 8.55729 9.375 7.55208V7.29167H4.6875C3.25104 7.29167 2.08333 6.12396 2.08333 4.6875C2.08333 3.25104 3.25104 2.08333 4.6875 2.08333H9.375V1.82292C9.375 0.817708 8.55729 0 7.55208 0H1.82292C0.817708 0 0 0.817708 0 1.82292V7.55208C0 8.55729 0.817708 9.375 1.82292 9.375Z" fill="#FAFCFE"/>
<path d="M23.1771 15.6251H21.3542V4.6876C21.3542 4.11156 20.8885 3.64594 20.3125 3.64594C19.7365 3.64594 19.2708 4.11156 19.2708 4.6876V15.6251H17.4479C16.4427 15.6251 15.625 16.4428 15.625 17.448V17.7084H20.3125C21.749 17.7084 22.9167 18.8761 22.9167 20.3126C22.9167 21.7491 21.749 22.9168 20.3125 22.9168H15.625V23.1772C15.625 24.1824 16.4427 25.0001 17.4479 25.0001H23.1771C24.1823 25.0001 25 24.1824 25 23.1772V17.448C25 16.4428 24.1823 15.6251 23.1771 15.6251Z" fill="#FAFCFE"/>
<path d="M23.1772 0H17.4481C16.4429 0 15.6252 0.817708 15.6252 1.82292V3.64583H4.68766C4.11162 3.64583 3.646 4.11146 3.646 4.6875C3.646 5.26354 4.11162 5.72917 4.68766 5.72917H15.6252V7.55208C15.6252 8.55729 16.4429 9.375 17.4481 9.375H17.7085V4.6875C17.7085 3.25104 18.8762 2.08333 20.3127 2.08333C21.7491 2.08333 22.9168 3.25104 22.9168 4.6875V9.375H23.1772C24.1825 9.375 25.0002 8.55729 25.0002 7.55208V1.82292C25.0002 0.817708 24.1825 0 23.1772 0Z" fill="#FAFCFE"/>
<path d="M1.82292 25H7.55208C8.55729 25 9.375 24.1823 9.375 23.1771V21.3542H20.3125C20.8885 21.3542 21.3542 20.8885 21.3542 20.3125C21.3542 19.7365 20.8885 19.2708 20.3125 19.2708H9.375V17.4479C9.375 16.4427 8.55729 15.625 7.55208 15.625H7.29167V20.3125C7.29167 21.749 6.12396 22.9167 4.6875 22.9167C3.25104 22.9167 2.08333 21.749 2.08333 20.3125V15.625H1.82292C0.817708 15.625 0 16.4427 0 17.4479V23.1771C0 24.1823 0.817708 25 1.82292 25Z" fill="#FAFCFE"/>
</g>
<defs>
<clipPath id="clip0_714_33249">
<rect width="25" height="25" fill="white"/>
</clipPath>
</defs>
</svg>
