<svg width="40" height="37" viewBox="0 0 40 37" fill="none" xmlns="http://www.w3.org/2000/svg">
<path d="M21.3066 25.1294C21.8877 25.1294 22.2114 24.7144 22.2114 24.0752V21.917H22.6099C25.0835 21.917 26.4116 20.5557 26.4116 18.1152V11.7568C26.4116 9.31641 25.0835 7.95508 22.6099 7.95508H11.9185C9.44482 7.95508 8.1167 9.32471 8.1167 11.7568V18.1152C8.1167 20.5474 9.44482 21.917 11.9185 21.917H17.2476L20.1113 24.4653C20.6177 24.9136 20.8999 25.1294 21.3066 25.1294ZM20.9663 23.6104L18.3101 20.9707C17.9946 20.647 17.7622 20.5806 17.2974 20.5806H11.9185C10.25 20.5806 9.45312 19.7256 9.45312 18.1069V11.7568C9.45312 10.1382 10.25 9.2915 11.9185 9.2915H22.6099C24.2866 9.2915 25.0752 10.1382 25.0752 11.7568V18.1069C25.0752 19.7256 24.2866 20.5806 22.6099 20.5806H21.5889C21.1406 20.5806 20.9663 20.7549 20.9663 21.2031V23.6104Z" fill="#EE333A"/>
<rect x="14" y="13" width="13" height="10" rx="3" fill="white"/>
<path d="M18.0474 30.1792C18.3711 30.1792 18.6118 30.0132 19.002 29.6479L21.9985 26.9087L27.6099 26.917C30.0835 26.9253 31.4116 25.5474 31.4116 23.1152V16.7568C31.4116 14.3247 30.0835 12.9551 27.6099 12.9551H16.9185C14.4448 12.9551 13.1167 14.3164 13.1167 16.7568V23.1152C13.1167 25.5557 14.4448 26.9087 16.9185 26.9087H17.3086V29.3242C17.3086 29.8389 17.5742 30.1792 18.0474 30.1792ZM17.8564 17.5703C17.5825 17.5703 17.3584 17.3545 17.3584 17.0723C17.3584 16.8066 17.5825 16.5825 17.8564 16.5825H26.5723C26.8462 16.5825 27.062 16.8066 27.062 17.0723C27.062 17.3545 26.8462 17.5703 26.5723 17.5703H17.8564ZM17.8564 20.3594C17.5825 20.3594 17.3584 20.1353 17.3584 19.853C17.3584 19.5874 17.5825 19.3633 17.8564 19.3633H26.5723C26.8462 19.3633 27.062 19.5874 27.062 19.853C27.062 20.1353 26.8462 20.3594 26.5723 20.3594H17.8564ZM17.8564 23.1401C17.5825 23.1401 17.3584 22.9243 17.3584 22.6504C17.3584 22.3682 17.5825 22.144 17.8564 22.144H23.5259C23.7998 22.144 24.0156 22.3682 24.0156 22.6504C24.0156 22.9243 23.7998 23.1401 23.5259 23.1401H17.8564Z" fill="#EE333A"/>
</svg>
