<svg width="38" height="37" viewBox="0 0 38 37" fill="none" xmlns="http://www.w3.org/2000/svg">
<path d="M12.3477 29.8945H24.7012C26.7529 29.8945 27.9131 28.7559 27.9131 26.7256V20.5703H27.9561C28.8691 20.2158 29.3203 19.3564 29.3203 18.0674V15.5107C29.3203 13.8027 28.3643 12.7607 26.6885 12.7607H25.335C25.915 12.1484 26.2695 11.3428 26.2695 10.4082C26.2695 8.17383 24.4648 6.5625 22.2412 6.5625C20.5332 6.5625 19.0293 7.57227 18.5244 9.36621C18.0303 7.57227 16.5264 6.5625 14.8076 6.5625C12.584 6.5625 10.79 8.17383 10.79 10.4082C10.79 11.3428 11.1445 12.1484 11.7246 12.7607H10.3711C8.72754 12.7607 7.73926 13.8027 7.73926 15.5107V18.0674C7.73926 19.3564 8.19043 20.2158 9.10352 20.5703H9.14648V26.7256C9.14648 28.7559 10.3066 29.8945 12.3477 29.8945ZM17.2783 12.7607H15.7637C14.1953 12.7607 13.3037 11.9229 13.3037 10.7842C13.3037 9.69922 14.0127 8.99023 15.1299 8.99023C16.3115 8.99023 17.2783 10.0107 17.2783 11.4072V12.7607ZM19.7705 12.7607V11.4072C19.7705 10.0107 20.748 8.99023 21.9189 8.99023C23.0469 8.99023 23.7559 9.69922 23.7559 10.7842C23.7559 11.9229 22.8643 12.7607 21.2959 12.7607H19.7705ZM17.2246 18.4111H11.1338C10.6719 18.4111 10.457 18.1963 10.457 17.7236V15.8438C10.457 15.3818 10.6719 15.1562 11.1338 15.1562H17.2246V18.4111ZM19.835 18.4111V15.1562H25.9258C26.3984 15.1562 26.6025 15.3818 26.6025 15.8438V17.7773C26.6025 18.25 26.3984 18.4111 25.9258 18.4111H19.835ZM17.2246 27.4453H13.0566C12.2832 27.4453 11.8535 26.9834 11.8535 26.2529V20.8174H17.2246V27.4453ZM19.835 27.4453V20.8174H25.2061V26.2529C25.2061 26.9834 24.7656 27.4453 23.9922 27.4453H19.835Z" fill="#EE333A"/>
</svg>
