<svg width="35" height="35" viewBox="0 0 35 35" fill="none" xmlns="http://www.w3.org/2000/svg">
<path d="M22.092 28.9706L18.3333 28.1353V20.0209C21.8606 19.5127 24.5833 16.4786 24.5833 12.8125C24.5833 12.4941 24.5568 12.1569 24.5029 11.7846C24.504 11.7541 24.5019 11.7225 24.4968 11.6915L23.5355 5.4415C23.4969 5.1877 23.2782 5 23.0208 5H18.4371C18.1889 5 17.9752 5.17549 17.9264 5.4186L17.3018 8.5436C17.2713 8.69668 17.311 8.85537 17.4096 8.97593C17.5083 9.09648 17.6568 9.16665 17.8125 9.16665H20.0952L18.0912 13.1731L18.3302 10.781C18.3455 10.6345 18.2977 10.4885 18.199 10.3797C18.1003 10.2703 17.9599 10.2083 17.8124 10.2083H15.2876L15.9468 5.59453C15.9682 5.44497 15.9234 5.29341 15.8247 5.17949C15.7261 5.06563 15.5816 5 15.4311 5H11.5625C11.3051 5 11.0864 5.1877 11.0478 5.4415L10.0854 11.6915C10.0804 11.7235 10.0783 11.7556 10.0804 11.7876C10.0265 12.1589 10 12.4952 10 12.8125C10 16.4787 12.7227 19.5128 16.25 20.021V28.1353L12.4913 28.9706C12.2318 29.0286 12.0579 29.2722 12.0864 29.5361C12.1159 29.8001 12.3386 30 12.6042 30H21.9792C22.2447 30 22.4674 29.8001 22.4969 29.5361C22.5254 29.2722 22.3515 29.0285 22.092 28.9706Z" fill="#EE333A"/>
</svg>
