<svg width="26" height="21" viewBox="0 0 26 21" fill="none" xmlns="http://www.w3.org/2000/svg">
<path d="M24.5156 5.14844L21.9766 1.08594C21.7422 0.734375 21.3516 0.5 20.9219 0.5H5.14062C4.71094 0.5 4.28125 0.734375 4.04688 1.08594L1.54688 5.14844C0.21875 7.25781 1.39062 10.1484 3.8125 10.4609C4.00781 10.5 4.16406 10.5 4.35938 10.5C5.53125 10.5 6.54688 9.99219 7.25 9.21094C7.95312 9.99219 8.96875 10.5 10.1406 10.5C11.2734 10.5 12.2891 9.99219 12.9922 9.21094C13.6953 9.99219 14.75 10.5 15.8828 10.5C17.0547 10.5 18.0703 9.99219 18.7734 9.21094C19.4766 9.99219 20.4922 10.5 21.6641 10.5C21.8594 10.5 22.0156 10.5 22.2109 10.4609C24.6328 10.1484 25.8047 7.25781 24.5156 5.14844ZM21.6641 11.75C21.2734 11.75 20.8828 11.7109 20.5312 11.6328V15.5H5.53125V11.6328C5.14062 11.7109 4.75 11.75 4.35938 11.75C4.125 11.75 3.89062 11.75 3.65625 11.7109C3.42188 11.6719 3.22656 11.6328 3.03125 11.5938V19.25C3.03125 19.9531 3.57812 20.5 4.28125 20.5H21.7812C22.4453 20.5 23.0312 19.9531 23.0312 19.25V11.5938C22.7969 11.6328 22.6016 11.7109 22.3672 11.7109C22.1328 11.75 21.8984 11.75 21.6641 11.75Z" fill="#EE333A"/>
</svg>
