<svg width="35" height="37" viewBox="0 0 35 37" fill="none" xmlns="http://www.w3.org/2000/svg">
<path d="M28.6423 16.6992C28.6039 16.6495 28.5669 16.6014 28.5316 16.5549C28.0909 15.9742 27.7347 15.3206 27.4204 14.744C27.1122 14.1785 26.8211 13.6445 26.5033 13.2752C25.7943 12.4512 25.1271 12.0507 24.4637 12.0507H21.1878C21.1847 12.0508 20.8717 12.0546 20.4951 12.0546H19.9609C19.5791 12.0546 19.2461 12.3138 19.1512 12.685L19.1468 12.7023V19.9354L19.1476 19.9502C19.148 19.9546 19.1561 20.0582 19.0744 20.1473C18.9843 20.2458 18.8113 20.2978 18.5741 20.2978H5.81442C5.36534 20.2977 5 20.6414 5 21.0639V23.6975C5 24.12 5.36534 24.4637 5.81442 24.4637H8.61677C8.76359 26.1413 10.1754 27.4619 11.8907 27.4619C13.6061 27.4619 15.018 26.1413 15.1648 24.4637H19.8549C20.0017 26.1413 21.4135 27.4619 23.1288 27.4619C24.8442 27.4619 26.2561 26.1413 26.4029 24.4637H28.5344C29.3425 24.4637 29.9999 23.8063 29.9999 22.9983V20.4838C30 18.46 29.183 17.4003 28.6423 16.6992ZM24.3546 24.175C24.3546 24.8507 23.8047 25.4003 23.1288 25.4003C22.4532 25.4003 21.9035 24.8507 21.9035 24.175C21.9035 23.4993 22.4532 22.9496 23.1288 22.9496C23.8047 22.9496 24.3546 23.4993 24.3546 24.175ZM27.1731 17.7952C27.1475 17.8375 27.0743 17.8557 26.9633 17.8486L21.3315 17.8483V13.2546H23.7663C24.4214 13.2546 24.8856 13.5397 25.3687 14.2388C25.6899 14.7038 26.5404 16.1678 26.5838 16.2426C26.614 16.3009 26.6451 16.3601 26.6764 16.42C26.9218 16.889 27.2927 17.5976 27.1731 17.7952ZM11.8907 22.9496C12.5666 22.9496 13.1165 23.4993 13.1165 24.175C13.1165 24.8507 12.5666 25.4003 11.8907 25.4003C11.2151 25.4003 10.6654 24.8507 10.6654 24.175C10.6654 23.4993 11.2151 22.9496 11.8907 22.9496Z" fill="#EE333A"/>
<path d="M6.71663 19.1329H10.5773C10.9686 19.1329 11.2869 18.8145 11.2869 18.4232V15.5845C11.2869 15.1931 10.9686 14.8748 10.5773 14.8748H6.71663C6.32529 14.8748 6.00696 15.1931 6.00696 15.5845V18.4232C6.00696 18.8145 6.32535 19.1329 6.71663 19.1329Z" fill="#EE333A"/>
<path d="M13.132 19.1329H16.9927C17.384 19.1329 17.7023 18.8145 17.7023 18.4232V15.5845C17.7023 15.1931 17.384 14.8748 16.9927 14.8748H13.132C12.7407 14.8748 12.4224 15.1931 12.4224 15.5845V18.4232C12.4224 18.8145 12.7408 19.1329 13.132 19.1329Z" fill="#EE333A"/>
<path d="M6.71663 13.7961H10.5773C10.9686 13.7961 11.2869 13.4778 11.2869 13.0864V10.2478C11.2869 9.85642 10.9686 9.53809 10.5773 9.53809H6.71663C6.32529 9.53809 6.00696 9.85642 6.00696 10.2478V13.0864C6.00696 13.4778 6.32535 13.7961 6.71663 13.7961Z" fill="#EE333A"/>
<path d="M13.132 13.7961H16.9927C17.384 13.7961 17.7023 13.4778 17.7023 13.0864V10.2478C17.7023 9.85642 17.384 9.53809 16.9927 9.53809H13.132C12.7407 9.53809 12.4224 9.85642 12.4224 10.2478V13.0864C12.4224 13.4778 12.7408 13.7961 13.132 13.7961Z" fill="#EE333A"/>
</svg>
