<svg width="35" height="39" viewBox="0 0 35 39" fill="none" xmlns="http://www.w3.org/2000/svg">
<path d="M17.5 19.1367C16.8164 19.1367 16.3281 19.6738 16.3281 20.3086C16.377 23.873 15.8887 27.2422 14.9609 30.6602C14.8145 31.1484 15.0586 32.125 16.084 32.125C16.6211 32.125 17.0605 31.832 17.207 31.2949C17.8906 28.9512 18.7207 25.1914 18.6719 20.3086C18.6719 19.6738 18.1348 19.1367 17.5 19.1367ZM17.4512 15.1816C14.4727 15.1816 12.373 17.4766 12.4219 20.1133C12.4219 22.457 12.2266 24.8008 11.7383 27.0469C11.6406 27.6816 12.0312 28.3164 12.666 28.4629C13.3008 28.5605 13.9355 28.1699 14.0332 27.5352C14.5703 25.0938 14.7656 22.6035 14.7656 20.0645C14.7168 18.7949 15.7422 17.5254 17.4023 17.5254C18.916 17.5254 20.1855 18.7461 20.2344 20.2109C20.2344 22.5547 20.0879 24.9473 19.6973 27.2422C19.5996 27.877 20.0391 28.4629 20.6738 28.5605C21.6504 28.7559 21.9922 27.8281 21.9922 27.6328C22.4316 25.1914 22.5781 22.6523 22.5781 20.1621C22.5293 17.4766 20.2344 15.2305 17.4512 15.1816ZM12.0312 14.2051C11.543 13.8145 10.8105 13.8633 10.3711 14.3516C9.15039 15.9141 8.4668 17.8672 8.51562 19.8203C8.51562 21.6758 8.36914 23.5312 8.02734 25.2891C7.92969 25.9727 8.36914 26.5586 9.00391 26.6562C9.98047 26.8516 10.3223 25.9727 10.3711 25.7285C10.7129 23.7754 10.8594 21.7734 10.8594 19.8203C10.8105 18.3555 11.2988 16.9883 12.2266 15.8652C12.6172 15.3281 12.5195 14.5957 12.0312 14.2051ZM17.4023 11.1777C16.6211 11.1289 15.8887 11.2266 15.1562 11.4219C14.5215 11.5684 14.1309 12.2031 14.2773 12.7891C14.4238 13.4238 15.0586 13.8145 15.6934 13.668C16.2305 13.5703 16.7676 13.5215 17.3535 13.5215C21.0156 13.5703 24.0918 16.5 24.1406 20.0645C24.1406 21.9199 24.043 23.7754 23.8477 25.6309C23.7988 26.2656 24.2383 26.8516 24.873 26.9004C25.7031 26.998 26.1426 26.3633 26.1914 25.875C26.3867 24.166 26.4844 22.457 26.4844 20.6992C26.4844 20.4551 26.4844 20.2598 26.4844 20.0156C26.3867 15.2305 22.334 11.2266 17.4023 11.1777ZM29.707 17.0859C29.5605 16.4512 28.9258 16.0605 28.291 16.207C27.6562 16.3535 27.2656 16.9395 27.4121 17.5742C27.6074 18.6484 27.6562 19.4297 27.6074 20.6016C27.6074 21.2363 28.1445 21.7734 28.7793 21.7734C29.4629 21.7734 29.9512 21.2852 29.9512 20.6016C30 19.5273 30 18.4531 29.707 17.0859ZM27.7051 12.6426C25.3613 9.27344 21.4551 7.22266 17.3047 7.17383C13.9355 7.125 10.7617 8.3457 8.41797 10.6895C6.17188 12.9844 4.95117 16.0117 5 19.1855V20.2598C4.95117 20.8945 5.48828 21.4316 6.12305 21.4316C6.12305 21.4316 6.12305 21.4316 6.17188 21.4316C6.75781 21.4316 7.29492 20.9434 7.29492 20.3086L7.34375 19.1367C7.29492 16.5977 8.27148 14.2051 10.0781 12.3496C11.9824 10.4941 14.5215 9.46875 17.3047 9.51758C20.6738 9.56641 23.8477 11.2266 25.8008 14.0098C26.1914 14.5469 26.9238 14.6445 27.4609 14.3027C27.9492 13.9121 28.0957 13.1797 27.7051 12.6426Z" fill="#EE333A"/>
</svg>
