<svg width="34" height="35" viewBox="0 0 34 35" fill="none" xmlns="http://www.w3.org/2000/svg">
<path d="M28.6506 11.5223L17.1597 5.05769C17.0925 5.01987 17.0166 5 16.9395 5C16.8623 5 16.7865 5.01987 16.7193 5.05769L5.22828 11.5223C5.15902 11.5613 5.10138 11.618 5.06127 11.6865C5.02116 11.755 5.00001 11.833 5 11.9123V29.5522C5 29.671 5.04725 29.7849 5.13136 29.8689C5.21547 29.9528 5.32954 30 5.44849 30H28.4304C28.5494 30 28.6635 29.9528 28.7476 29.8689C28.8317 29.7849 28.8789 29.671 28.8789 29.5522V11.9117C28.8788 11.8324 28.8576 11.7546 28.8175 11.6862C28.7774 11.6178 28.7198 11.5613 28.6506 11.5223Z" fill="#EE333A"/>
<path d="M7.80273 17.4821C7.80273 16.3775 8.69816 15.4821 9.80273 15.4821H24.0763C25.1808 15.4821 26.0763 16.3775 26.0763 17.4821V30H7.80273V17.4821Z" fill="white"/>
<path d="M20.7058 25.6929H12.6197C12.1116 25.6929 11.6997 26.1047 11.6997 26.6128V28.0491C11.6997 28.5572 12.1116 28.9691 12.6197 28.9691H20.7058C21.2138 28.9691 21.6257 28.5572 21.6257 28.0491V26.6128C21.6257 26.1047 21.2138 25.6929 20.7058 25.6929Z" fill="#EE333A"/>
<path d="M14.7287 27.739C14.9687 27.739 15.1632 27.5444 15.1632 27.3045C15.1632 27.0645 14.9687 26.8699 14.7287 26.8699C14.4887 26.8699 14.2942 27.0645 14.2942 27.3045C14.2942 27.5444 14.4887 27.739 14.7287 27.739Z" fill="#FAFCFE"/>
<path d="M13.1757 26.8699C13.0898 26.8699 13.0058 26.8954 12.9343 26.9432C12.8629 26.9909 12.8072 27.0588 12.7743 27.1382C12.7414 27.2176 12.7328 27.3049 12.7496 27.3892C12.7663 27.4735 12.8077 27.551 12.8685 27.6117C12.9293 27.6725 13.0067 27.7139 13.091 27.7306C13.1753 27.7474 13.2626 27.7388 13.342 27.7059C13.4214 27.673 13.4893 27.6173 13.537 27.5459C13.5848 27.4744 13.6103 27.3904 13.6103 27.3045C13.6103 27.1892 13.5645 27.0787 13.483 26.9972C13.4015 26.9157 13.291 26.8699 13.1757 26.8699Z" fill="#FAFCFE"/>
<path d="M20.7058 22.1304H12.6197C12.1116 22.1304 11.6997 22.5422 11.6997 23.0503V24.4866C11.6997 24.9947 12.1116 25.4066 12.6197 25.4066H20.7058C21.2138 25.4066 21.6257 24.9947 21.6257 24.4866V23.0503C21.6257 22.5422 21.2138 22.1304 20.7058 22.1304Z" fill="#EE333A"/>
<path d="M14.8885 23.3076C14.8026 23.3077 14.7187 23.3333 14.6473 23.3811C14.5759 23.4289 14.5202 23.4968 14.4874 23.5762C14.4546 23.6556 14.4461 23.7429 14.4629 23.8272C14.4797 23.9115 14.5211 23.9888 14.5819 24.0496C14.6427 24.1103 14.7201 24.1516 14.8044 24.1684C14.8887 24.1851 14.976 24.1765 15.0554 24.1436C15.1348 24.1107 15.2026 24.055 15.2503 23.9835C15.2981 23.9121 15.3235 23.8281 15.3235 23.7421C15.3235 23.685 15.3123 23.6285 15.2904 23.5758C15.2685 23.523 15.2365 23.4751 15.1961 23.4347C15.1557 23.3944 15.1077 23.3624 15.055 23.3406C15.0022 23.3188 14.9456 23.3076 14.8885 23.3076Z" fill="#FAFCFE"/>
<path d="M13.3357 23.3076C13.2497 23.3076 13.1657 23.3331 13.0942 23.3808C13.0228 23.4286 12.9671 23.4965 12.9342 23.5759C12.9013 23.6553 12.8927 23.7426 12.9095 23.8269C12.9262 23.9112 12.9676 23.9886 13.0284 24.0494C13.0892 24.1102 13.1666 24.1516 13.2509 24.1683C13.3352 24.1851 13.4225 24.1765 13.5019 24.1436C13.5813 24.1107 13.6492 24.055 13.697 23.9836C13.7447 23.9121 13.7702 23.8281 13.7702 23.7421C13.7702 23.6851 13.7589 23.6286 13.7371 23.5759C13.7153 23.5231 13.6833 23.4752 13.6429 23.4349C13.6026 23.3945 13.5547 23.3625 13.5019 23.3407C13.4492 23.3189 13.3927 23.3076 13.3357 23.3076Z" fill="#FAFCFE"/>
<path d="M20.7058 18.5742H12.6197C12.1116 18.5742 11.6997 18.9861 11.6997 19.4942V20.9305C11.6997 21.4386 12.1116 21.8505 12.6197 21.8505H20.7058C21.2138 21.8505 21.6257 21.4386 21.6257 20.9305V19.4942C21.6257 18.9861 21.2138 18.5742 20.7058 18.5742Z" fill="#EE333A"/>
<path d="M14.8885 19.7511C14.8026 19.7512 14.7186 19.7768 14.6472 19.8246C14.5758 19.8724 14.5202 19.9404 14.4874 20.0198C14.4546 20.0993 14.446 20.1866 14.4629 20.2709C14.4798 20.3552 14.5213 20.4326 14.5821 20.4933C14.643 20.554 14.7205 20.5953 14.8048 20.6119C14.8891 20.6286 14.9765 20.6198 15.0559 20.5868C15.1352 20.5538 15.203 20.498 15.2507 20.4265C15.2983 20.355 15.3237 20.2709 15.3235 20.185C15.3233 20.0698 15.2774 19.9593 15.1959 19.878C15.1143 19.7966 15.0038 19.751 14.8885 19.7511Z" fill="#FAFCFE"/>
<path d="M13.3357 19.7511C13.2497 19.7511 13.1656 19.7766 13.0942 19.8244C13.0227 19.8722 12.967 19.9401 12.9341 20.0195C12.9013 20.0989 12.8927 20.1863 12.9095 20.2706C12.9263 20.355 12.9678 20.4324 13.0286 20.4931C13.0895 20.5539 13.167 20.5952 13.2513 20.6119C13.3356 20.6286 13.423 20.6199 13.5024 20.5869C13.5818 20.5539 13.6496 20.4981 13.6973 20.4265C13.7449 20.355 13.7703 20.2709 13.7702 20.185C13.7701 20.0698 13.7242 19.9594 13.6427 19.8781C13.5613 19.7967 13.4508 19.751 13.3357 19.7511Z" fill="#FAFCFE"/>
<path d="M16.9394 13.0614C18.0539 13.0614 18.9574 12.158 18.9574 11.0435C18.9574 9.92903 18.0539 9.02557 16.9394 9.02557C15.825 9.02557 14.9215 9.92903 14.9215 11.0435C14.9215 12.158 15.825 13.0614 16.9394 13.0614Z" fill="#ECF1F4"/>
<path d="M16.9394 9.69728C17.416 9.69754 17.8771 9.86657 18.241 10.1744C18.6048 10.4822 18.8479 10.9089 18.9271 11.3789C18.9779 11.0888 18.9646 10.7912 18.8882 10.5068C18.8117 10.2224 18.674 9.95821 18.4846 9.73273C18.2951 9.50725 18.0587 9.32596 17.7918 9.20158C17.5248 9.07721 17.2339 9.01276 16.9394 9.01276C16.645 9.01276 16.3541 9.07721 16.0871 9.20158C15.8202 9.32596 15.5837 9.50725 15.3943 9.73273C15.2049 9.95821 15.0672 10.2224 14.9907 10.5068C14.9143 10.7912 14.901 11.0888 14.9518 11.3789C15.031 10.9089 15.2741 10.4822 15.6379 10.1744C16.0018 9.86657 16.4629 9.69754 16.9394 9.69728Z" fill="white"/>
</svg>
